<svg xmlns="http://www.w3.org/2000/svg" width="52" height="59" viewBox="0 0 52 59" fill="none"><path d="M50.7567 14.2615L41.8833 9.09077L45.3107 4.62362C45.6743 4.0548 45.8128 3.36939 45.6989 2.70274C45.5912 2.01248 45.2263 1.3895 44.6785 0.960553C44.1494 0.545471 43.4828 0.349704 42.815 0.413327C42.1448 0.469761 41.5197 0.776485 41.0626 1.27325L37.1915 6.3323L26.6433 0.178801C26.4299 0.0587299 26.1889 -0.00288205 25.9445 0.000114773C25.7035 -0.00303386 25.4661 0.0586527 25.2568 0.178801L14.6531 6.39931L10.7377 1.27325C10.2892 0.743682 9.65587 0.407817 8.96846 0.335071C8.28106 0.262325 7.59214 0.458258 7.04413 0.882378C6.49632 1.31132 6.13144 1.93431 6.02371 2.62457C5.92213 3.32081 6.09313 4.02956 6.50064 4.60128L9.96126 9.12427L1.19879 14.2727C0.987299 14.3964 0.811466 14.5734 0.688575 14.7864C0.566875 15.0008 0.501929 15.243 0.5 15.49V43.5548C0.500232 43.8016 0.564909 44.044 0.687559 44.2577C0.810209 44.4713 0.986524 44.6487 1.19879 44.7721L25.3012 58.8101C25.5096 58.9337 25.747 58.9992 25.9889 59C26.2342 58.9991 26.4751 58.9336 26.6876 58.8101L50.8011 44.7721C51.0157 44.6487 51.1953 44.4718 51.3224 44.2584C51.4417 44.0435 51.5029 43.8009 51.4999 43.5548V15.4788C51.497 15.227 51.4282 14.9804 51.3003 14.764C51.1675 14.5502 50.9797 14.3765 50.7567 14.2615ZM49.0042 38.7191L26.011 49.887L3.02892 38.7191V34.8104L26.011 46.4361L48.982 34.8104L49.0042 38.7191ZM49.0042 28.2213L26.011 39.4562L3.04002 28.2213V24.3126L26.011 35.9383L48.982 24.3126L49.0042 28.2213Z" fill="#FFAE00"/></svg>
